<mxfile host="app.diagrams.net" agent="Mozilla/5.0 (Windows NT 10.0; Win64; x64) AppleWebKit/537.36 (KHTML, like Gecko) Chrome/134.0.0.0 Safari/537.36" version="26.1.3">
  <diagram name="Page-1" id="XiMtN7s02s2SIZ8LK0ji">
    <mxGraphModel dx="1972" dy="460" grid="1" gridSize="10" guides="1" tooltips="1" connect="1" arrows="1" fold="1" page="1" pageScale="1" pageWidth="827" pageHeight="1169" math="0" shadow="0">
      <root>
        <mxCell id="0" />
        <mxCell id="1" parent="0" />
        <mxCell id="FvKWhj9dl1ybXBpA6xKd-15" value="" style="edgeStyle=orthogonalEdgeStyle;rounded=0;orthogonalLoop=1;jettySize=auto;html=1;" edge="1" parent="1" source="FvKWhj9dl1ybXBpA6xKd-1" target="FvKWhj9dl1ybXBpA6xKd-14">
          <mxGeometry relative="1" as="geometry" />
        </mxCell>
        <mxCell id="FvKWhj9dl1ybXBpA6xKd-19" value="" style="edgeStyle=orthogonalEdgeStyle;rounded=0;orthogonalLoop=1;jettySize=auto;html=1;" edge="1" parent="1" source="FvKWhj9dl1ybXBpA6xKd-1" target="FvKWhj9dl1ybXBpA6xKd-18">
          <mxGeometry relative="1" as="geometry" />
        </mxCell>
        <mxCell id="FvKWhj9dl1ybXBpA6xKd-1" value="&lt;h1&gt;&lt;font style=&quot;font-size: 18px;&quot; face=&quot;Courier New&quot;&gt;&lt;span style=&quot;background-color: rgb(51, 255, 255);&quot;&gt;&lt;u style=&quot;&quot;&gt;Is your TV broken&lt;/u&gt;&lt;/span&gt;&lt;/font&gt;&lt;/h1&gt;" style="shape=hexagon;perimeter=hexagonPerimeter2;whiteSpace=wrap;html=1;fixedSize=1;fillColor=#44FFBA;" vertex="1" parent="1">
          <mxGeometry x="337" y="20" width="154" height="80" as="geometry" />
        </mxCell>
        <mxCell id="FvKWhj9dl1ybXBpA6xKd-17" value="" style="edgeStyle=orthogonalEdgeStyle;rounded=0;orthogonalLoop=1;jettySize=auto;html=1;" edge="1" parent="1" source="FvKWhj9dl1ybXBpA6xKd-14" target="FvKWhj9dl1ybXBpA6xKd-16">
          <mxGeometry relative="1" as="geometry" />
        </mxCell>
        <mxCell id="FvKWhj9dl1ybXBpA6xKd-14" value="&lt;h1&gt;&lt;font style=&quot;font-size: 18px;&quot; face=&quot;Courier New&quot;&gt;&lt;span style=&quot;background-color: rgb(51, 255, 255);&quot;&gt;&lt;u&gt;no&lt;/u&gt;&lt;/span&gt;&lt;/font&gt;&lt;/h1&gt;" style="shape=document;whiteSpace=wrap;html=1;boundedLbl=1;fillColor=#FF3333;" vertex="1" parent="1">
          <mxGeometry x="120" y="140" width="120" height="80" as="geometry" />
        </mxCell>
        <mxCell id="FvKWhj9dl1ybXBpA6xKd-16" value="&lt;h1&gt;&lt;font face=&quot;Courier New&quot;&gt;&lt;span style=&quot;font-size: 18px; background-color: rgb(51, 255, 255);&quot;&gt;&lt;u&gt;Your fine&lt;/u&gt;&lt;/span&gt;&lt;/font&gt;&lt;/h1&gt;" style="shape=process;whiteSpace=wrap;html=1;backgroundOutline=1;fillColor=#994C00;" vertex="1" parent="1">
          <mxGeometry x="-90" y="220" width="120" height="60" as="geometry" />
        </mxCell>
        <mxCell id="FvKWhj9dl1ybXBpA6xKd-21" value="" style="edgeStyle=orthogonalEdgeStyle;rounded=0;orthogonalLoop=1;jettySize=auto;html=1;" edge="1" parent="1" source="FvKWhj9dl1ybXBpA6xKd-18" target="FvKWhj9dl1ybXBpA6xKd-20">
          <mxGeometry relative="1" as="geometry" />
        </mxCell>
        <mxCell id="FvKWhj9dl1ybXBpA6xKd-25" value="" style="edgeStyle=orthogonalEdgeStyle;rounded=0;orthogonalLoop=1;jettySize=auto;html=1;" edge="1" parent="1" source="FvKWhj9dl1ybXBpA6xKd-18" target="FvKWhj9dl1ybXBpA6xKd-24">
          <mxGeometry relative="1" as="geometry" />
        </mxCell>
        <mxCell id="FvKWhj9dl1ybXBpA6xKd-18" value="&lt;h1&gt;&lt;font face=&quot;Courier New&quot;&gt;&lt;span style=&quot;font-size: 11px; background-color: rgb(51, 255, 255);&quot;&gt;&lt;u&gt;Is it plugged in&lt;/u&gt;&lt;/span&gt;&lt;/font&gt;&lt;/h1&gt;" style="ellipse;shape=cloud;whiteSpace=wrap;html=1;fillColor=#FF66FF;" vertex="1" parent="1">
          <mxGeometry x="640" y="5" width="132" height="110" as="geometry" />
        </mxCell>
        <mxCell id="FvKWhj9dl1ybXBpA6xKd-23" value="" style="edgeStyle=orthogonalEdgeStyle;rounded=0;orthogonalLoop=1;jettySize=auto;html=1;" edge="1" parent="1" source="FvKWhj9dl1ybXBpA6xKd-20" target="FvKWhj9dl1ybXBpA6xKd-22">
          <mxGeometry relative="1" as="geometry" />
        </mxCell>
        <mxCell id="FvKWhj9dl1ybXBpA6xKd-20" value="Yes" style="triangle;whiteSpace=wrap;html=1;fillColor=#FF3399;" vertex="1" parent="1">
          <mxGeometry x="676" y="210" width="60" height="80" as="geometry" />
        </mxCell>
        <mxCell id="FvKWhj9dl1ybXBpA6xKd-35" value="" style="edgeStyle=orthogonalEdgeStyle;rounded=0;orthogonalLoop=1;jettySize=auto;html=1;" edge="1" parent="1" source="FvKWhj9dl1ybXBpA6xKd-22" target="FvKWhj9dl1ybXBpA6xKd-34">
          <mxGeometry relative="1" as="geometry" />
        </mxCell>
        <mxCell id="FvKWhj9dl1ybXBpA6xKd-39" value="" style="edgeStyle=orthogonalEdgeStyle;rounded=0;orthogonalLoop=1;jettySize=auto;html=1;" edge="1" parent="1" source="FvKWhj9dl1ybXBpA6xKd-22" target="FvKWhj9dl1ybXBpA6xKd-38">
          <mxGeometry relative="1" as="geometry" />
        </mxCell>
        <mxCell id="FvKWhj9dl1ybXBpA6xKd-22" value="is it on" style="rounded=1;whiteSpace=wrap;html=1;fillColor=#FFFF33;" vertex="1" parent="1">
          <mxGeometry x="506" y="220" width="120" height="60" as="geometry" />
        </mxCell>
        <mxCell id="FvKWhj9dl1ybXBpA6xKd-33" value="" style="edgeStyle=orthogonalEdgeStyle;rounded=0;orthogonalLoop=1;jettySize=auto;html=1;" edge="1" parent="1" source="FvKWhj9dl1ybXBpA6xKd-24" target="FvKWhj9dl1ybXBpA6xKd-32">
          <mxGeometry relative="1" as="geometry" />
        </mxCell>
        <mxCell id="FvKWhj9dl1ybXBpA6xKd-24" value="no" style="shape=singleArrow;whiteSpace=wrap;html=1;arrowWidth=0.4;arrowSize=0.4;strokeColor=default;fillColor=#B9E0A5;" vertex="1" parent="1">
          <mxGeometry x="878" y="30" width="80" height="60" as="geometry" />
        </mxCell>
        <mxCell id="FvKWhj9dl1ybXBpA6xKd-32" value="Plug it in" style="whiteSpace=wrap;html=1;fillColor=#FFD966;" vertex="1" parent="1">
          <mxGeometry x="940" y="170" width="38" height="60" as="geometry" />
        </mxCell>
        <mxCell id="FvKWhj9dl1ybXBpA6xKd-34" value="&lt;div&gt;Yes&lt;/div&gt;&lt;div&gt;Find a new TV or&lt;/div&gt;&lt;div&gt;Find an Electrician&lt;/div&gt;" style="shape=step;perimeter=stepPerimeter;whiteSpace=wrap;html=1;fixedSize=1;rounded=1;size=14;fillColor=#006633;" vertex="1" parent="1">
          <mxGeometry x="306" y="210" width="134" height="80" as="geometry" />
        </mxCell>
        <mxCell id="FvKWhj9dl1ybXBpA6xKd-38" value="No turn that tv on&amp;nbsp;" style="shape=singleArrow;whiteSpace=wrap;html=1;arrowWidth=0.4;arrowSize=0.4;rounded=1;fillColor=#66B2FF;" vertex="1" parent="1">
          <mxGeometry x="504" y="350" width="124" height="80" as="geometry" />
        </mxCell>
        <mxCell id="FvKWhj9dl1ybXBpA6xKd-45" value="" style="endArrow=classic;html=1;rounded=0;edgeStyle=orthogonalEdgeStyle;curved=1;" edge="1" parent="1">
          <mxGeometry width="50" height="50" relative="1" as="geometry">
            <mxPoint x="504" y="390" as="sourcePoint" />
            <mxPoint x="284" y="460" as="targetPoint" />
            <Array as="points">
              <mxPoint x="484" y="380" />
              <mxPoint x="285" y="380" />
            </Array>
          </mxGeometry>
        </mxCell>
        <mxCell id="FvKWhj9dl1ybXBpA6xKd-46" value="" style="endArrow=classic;html=1;rounded=0;edgeStyle=orthogonalEdgeStyle;curved=1;" edge="1" parent="1" source="FvKWhj9dl1ybXBpA6xKd-16">
          <mxGeometry width="50" height="50" relative="1" as="geometry">
            <mxPoint x="170" y="330" as="sourcePoint" />
            <mxPoint x="280" y="460" as="targetPoint" />
            <Array as="points">
              <mxPoint x="-20" y="370" />
              <mxPoint x="250" y="370" />
              <mxPoint x="250" y="430" />
            </Array>
          </mxGeometry>
        </mxCell>
        <mxCell id="FvKWhj9dl1ybXBpA6xKd-47" value="&lt;h1&gt;&lt;font face=&quot;Lucida Console&quot;&gt;Fin&lt;/font&gt;&lt;/h1&gt;" style="shape=tape;whiteSpace=wrap;html=1;fillColor=#80FF00;" vertex="1" parent="1">
          <mxGeometry x="230" y="430" width="120" height="100" as="geometry" />
        </mxCell>
      </root>
    </mxGraphModel>
  </diagram>
</mxfile>
